<?xml version="1.0" encoding="utf-8"?>
<!-- Generator: Adobe Illustrator 27.8.0, SVG Export Plug-In . SVG Version: 6.00 Build 0)  -->
<svg version="1.1" id="Layer_1" xmlns="http://www.w3.org/2000/svg" xmlns:xlink="http://www.w3.org/1999/xlink" x="0px" y="0px"
	 viewBox="0 0 300 300" style="enable-background:new 0 0 300 300;" xml:space="preserve">
<style type="text/css">
	.st0{fill:#E1FE04;}
	.st1{fill:#E2FF04;}
	.st2{fill:#060700;}
	.st3{fill:#030400;}
	.st4{fill:#080901;}
	.st5{fill:#121503;}
	.st6{fill:#DEFA04;}
	.st7{fill:#DFFB04;}
	.st8{fill:#DFFC04;}
</style>
<path class="st0" d="M300,153c0,49,0,97.9,0,146.9c-99.9,0-199.8,0-300,0c0-48.6,0-97.3,0.5-146.5C100.6,153,200.3,153,300,153
	 M109.7,223c3,9.7,6.4,19.2,8.9,29.1c1.3,5.4,3.7,7.4,9.4,5.7c5-15.4,10.1-31.1,15.6-48.1c5.5,17,10.6,32.7,15.6,48.3
	c2.7,0,5,0,7.4,0c5.9-19,11.8-37.8,17.6-56.6c-4.8-1.8-7.1-0.1-8.1,4.3c-1.2,5-2.8,9.9-4.4,14.8c-2.8,9.1-5.7,18.3-8.9,28.7
	c-5.1-15.8-9.8-30.3-14.3-44.8c-0.8-2.7-1.8-3.8-4.7-3.8c-3,0-4.7,0.7-5.1,3.9c-0.3,1.9-1.2,3.8-1.8,5.7c-4,12.5-8.1,25-12.5,38.6
	c-0.8-2.1-1.2-3.1-1.5-4.2c-4-12.9-8.1-25.7-11.7-38.6c-1.3-4.7-3.4-6.3-8.2-4.7C105.1,208.3,107.2,215.3,109.7,223 M36.9,247.5
	c0,2.8,0,5.6,0,8.6c6.7,0,12.8,0.1,19,0c5.6-0.2,11.4,0,16.8-1.2c9-2,13.8-11.2,10.1-19.3c-1.7-3.7-5.4-6.4-8.2-9.5
	c6.1-5.1,7.6-9.3,5.6-16.4c-1.7-6-6.4-10.4-13-10.6c-10-0.4-19.9-0.1-30.3-0.1C36.9,214.9,36.9,230.7,36.9,247.5 M251.6,236
	c-2.3,2.1-4.5,4.3-6.9,6.6c1.6,1.4,2.7,2.4,3.4,3c5-4.9,9.9-9.6,14.8-14.3c-4.8-4.7-9.6-9.5-14.6-14.4c-1,0.8-2.1,1.8-3.3,2.9
	c2.7,2.9,5.2,5.5,8.6,9c-17.7,0-34.2,0-50.9,0c0,2.1,0,3.5,0,5.3c1.9,0,3.5,0,5.1,0c13.7,0,27.3,0,41,0.1
	C249.8,234.1,250.9,234.9,251.6,236z"/>
<path class="st1" d="M0,147C0,98,0,49.1,0,0.1c99.9,0,199.8,0,300,0c0,48.6,0,97.3-0.5,146.5C199.4,147,99.7,147,0,147 M120.2,92.4
	c0-4,0-8,0-12.4c6.2,0,12.2-0.2,18.2,0.1c1.3,0.1,2.8,1.4,3.6,2.6c3.4,5,6.9,9.9,9.6,15.2c2.4,4.8,5.8,4.9,10.2,3.7
	c-4.9-7.6-9.6-14.9-14.4-22.4c1-0.5,1.6-0.9,2.2-1.1c9.3-4,12.7-9.4,11.3-18.5c-1.2-8.6-6.9-14.3-16.2-14.8
	c-10.1-0.6-20.2-0.1-30.5-0.1c0,19.2,0,38.2,0,57.2c2.1,0,3.9,0,6.1,0C120.2,99,120.2,96.2,120.2,92.4 M76.8,49.7
	c-3.1-1.5-6.2-4.1-9.4-4.3c-10-0.6-20.1-0.2-30.4-0.2c0,18.8,0,37.7,0,56.8c9.5,0,18.8,0.4,28-0.2c3.7-0.3,7.8-2.1,10.9-4.3
	C91.3,87,91.8,63.3,76.8,49.7 M196.9,99.2c0-1.9,0-3.8,0-5.7c-3.3,0-5.8,0-8.5,0c0,3,0,5.7,0,8.9C191.3,101,195,104.7,196.9,99.2z"
	/>
<path d="M0,147.4c99.7-0.4,199.4-0.4,299.5-0.4c0.5,1.7,0.5,3.4,0.5,5.6C200.3,153,100.6,153,0.5,153C0,151.3,0,149.6,0,147.4z"/>
<path class="st2" d="M109.5,222.6c-2.3-7.3-4.4-14.3-6.6-21.3c4.8-1.6,6.9-0.1,8.2,4.7c3.6,13,7.8,25.8,11.7,38.6
	c0.3,1.1,0.8,2.1,1.5,4.2c4.4-13.5,8.4-26,12.5-38.6c0.6-1.9,1.5-3.7,1.8-5.7c0.5-3.2,2.1-3.9,5.1-3.9c2.9,0,3.9,1.1,4.7,3.8
	c4.5,14.5,9.2,29,14.3,44.8c3.2-10.4,6.1-19.6,8.9-28.7c1.5-4.9,3.2-9.8,4.4-14.8c1.1-4.5,3.3-6.1,8.1-4.3
	c-5.8,18.8-11.7,37.6-17.6,56.6c-2.4,0-4.7,0-7.4,0c-5-15.6-10.1-31.3-15.6-48.3c-5.5,17-10.6,32.7-15.6,48.1
	c-5.8,1.7-8.1-0.3-9.4-5.7C116.1,242.2,112.7,232.6,109.5,222.6z"/>
<path class="st2" d="M36.9,247c0-16.3,0-32.1,0-48.1c10.4,0,20.4-0.3,30.3,0.1c6.6,0.3,11.3,4.6,13,10.6c2,7.1,0.5,11.3-5.6,16.4
	c2.8,3.1,6.5,5.9,8.2,9.5c3.7,8.2-1.1,17.3-10.1,19.3c-5.4,1.2-11.2,1-16.8,1.2c-6.1,0.2-12.3,0-19,0C36.9,253,36.9,250.2,36.9,247
	 M43.1,239.5c0,3.4,0,6.8,0,10.5c8.2,0,15.7,0.1,23.1,0c6.8-0.1,10.9-3.4,11.3-8.8c0.3-5.5-3.7-10.4-10.2-10.7
	c-7.9-0.5-15.9-0.1-24.2-0.1C43.1,233.3,43.1,235.9,43.1,239.5 M60.4,224.3c2.3-0.2,4.7-0.1,6.9-0.6c4.5-1.1,7.6-5.2,7.3-9.5
	c-0.3-4.3-2.3-8.5-6.6-8.8c-8.1-0.7-16.4-0.2-24.6-0.2c0,6.4,0,12.5,0,19.2C48.9,224.3,54.1,224.3,60.4,224.3z"/>
<path class="st3" d="M251.8,235.7c-0.9-0.7-2-1.6-3.1-1.6c-13.7-0.1-27.3-0.1-41-0.1c-1.6,0-3.3,0-5.1,0c0-1.9,0-3.3,0-5.3
	c16.7,0,33.2,0,50.9,0c-3.4-3.5-5.9-6.1-8.6-9c1.3-1.1,2.3-2,3.3-2.9c4.9,4.9,9.8,9.7,14.6,14.4c-4.9,4.7-9.8,9.5-14.8,14.3
	c-0.7-0.6-1.8-1.6-3.4-3C247.1,240.2,249.3,238.1,251.8,235.7z"/>
<path class="st4" d="M120.2,92.9c0,3.3,0,6.1,0,9.1c-2.2,0-3.9,0-6.1,0c0-19,0-38,0-57.2c10.3,0,20.4-0.4,30.5,0.1
	c9.3,0.5,15,6.2,16.2,14.8c1.3,9.1-2,14.6-11.3,18.5c-0.6,0.3-1.2,0.6-2.2,1.1c4.8,7.4,9.5,14.8,14.4,22.4
	c-4.4,1.1-7.8,1.1-10.2-3.7c-2.7-5.3-6.2-10.2-9.6-15.2c-0.8-1.2-2.4-2.6-3.6-2.6c-6-0.3-11.9-0.1-18.2-0.1
	C120.2,84.4,120.2,88.4,120.2,92.9 M120.2,67.4c0,2.1,0,4.2,0,7c8.9-0.4,17.2-0.3,25.4-1.4c6.2-0.8,8.9-5,8.8-10.8
	c-0.1-5.7-3.8-10.6-9.6-11c-8-0.6-16.1-0.1-24.6-0.1C120.2,56.5,120.2,61.4,120.2,67.4z"/>
<path class="st4" d="M77,49.9C91.8,63.3,91.3,87,76,97.5c-3.2,2.2-7.2,4.1-10.9,4.3c-9.2,0.6-18.5,0.2-28,0.2c0-19.1,0-38,0-56.8
	c10.2,0,20.3-0.4,30.4,0.2C70.6,45.5,73.6,48.2,77,49.9 M43.2,74.5c0,7.1,0,14.2,0,21.5c6.3,0,12,0,17.6,0
	c10.4-0.1,18.4-7.5,20.1-18.4c1.8-12-4.2-24.1-14.3-25.9c-7.5-1.3-15.4-0.3-23.4-0.3C43.2,58.9,43.2,66.2,43.2,74.5z"/>
<path class="st5" d="M196.9,99.6c-1.9,5.1-5.6,1.4-8.5,2.8c0-3.2,0-5.9,0-8.9c2.7,0,5.3,0,8.5,0C196.9,95.4,196.9,97.3,196.9,99.6z"
	/>
<path class="st6" d="M43.1,239c0-3.1,0-5.7,0-8.8c8.4,0,16.3-0.4,24.2,0.1c6.4,0.4,10.5,5.2,10.2,10.7c-0.3,5.4-4.5,8.8-11.3,8.8
	c-7.5,0.1-15,0-23.1,0C43.1,246.4,43.1,242.9,43.1,239z"/>
<path class="st7" d="M59.9,224.3c-5.8,0-11,0-16.5,0c0-6.6,0-12.7,0-19.2c8.2,0,16.5-0.5,24.6,0.2c4.4,0.4,6.4,4.5,6.6,8.8
	c0.3,4.4-2.8,8.4-7.3,9.5C65.1,224.3,62.7,224.1,59.9,224.3z"/>
<path class="st8" d="M120.2,66.9c0-5.4,0-10.4,0-15.8c8.4,0,16.5-0.4,24.6,0.1c5.8,0.4,9.4,5.3,9.6,11c0.2,5.8-2.6,10-8.8,10.8
	c-8.2,1-16.5,1-25.4,1.4C120.2,71.6,120.2,69.5,120.2,66.9z"/>
<path class="st8" d="M43.2,74c0-7.8,0-15.1,0-22.6c8,0,15.9-1.1,23.4,0.3c10,1.8,16.1,13.9,14.3,25.9c-1.6,11-9.6,18.4-20.1,18.4
	c-5.6,0-11.3,0-17.6,0C43.2,88.7,43.2,81.6,43.2,74z"/>
</svg>
